<svg width="276" height="276" viewBox="0 0 276 276" fill="none" xmlns="http://www.w3.org/2000/svg">
<g filter="url(#filter0_d_1_17)">
<circle cx="138" cy="134" r="128" fill="#DEECF6"/>
<rect x="77.7178" y="15.1279" width="39.4526" height="233.794" rx="19.7263" transform="rotate(12.4911 77.7178 15.1279)" fill="white"/>
<path d="M76.3414 47.9494C73.6258 37.3988 79.9773 26.6443 90.5279 23.9286V23.9286C101.079 21.213 111.833 27.5645 114.549 38.1152L131.506 103.997C134.222 114.548 127.87 125.302 117.32 128.018V128.018C106.769 130.733 96.0145 124.382 93.2988 113.831L76.3414 47.9494Z" fill="white"/>
<rect x="180.449" y="15.9046" width="39.4526" height="233.794" rx="19.7263" transform="rotate(14.5 180.449 15.9046)" fill="white"/>
<path d="M176.561 44.8808C173.833 34.3332 180.172 23.5715 190.72 20.8437V20.8437C201.267 18.1159 212.029 24.4551 214.757 35.0026L260.931 213.545C263.659 224.092 257.32 234.854 246.772 237.582V237.582C236.225 240.309 225.463 233.97 222.735 223.423L176.561 44.8808Z" fill="white"/>
<rect x="67.5668" y="14" width="39.4526" height="233.794" rx="19.7263" transform="rotate(12.4911 67.5668 14)" fill="#DFDFDF"/>
<path d="M66.1905 46.8215C63.4748 36.2709 69.8263 25.5164 80.377 22.8007V22.8007C90.9277 20.0851 101.682 26.4366 104.398 36.9873L121.355 102.869C124.071 113.42 117.719 124.174 107.169 126.89V126.89C96.618 129.605 85.8635 123.254 83.1479 112.703L66.1905 46.8215Z" fill="#DFDFDF"/>
<rect x="170.298" y="14.7767" width="39.4526" height="233.794" rx="19.7263" transform="rotate(14.5 170.298 14.7767)" fill="#DFDFDF"/>
<path d="M166.41 43.7529C163.682 33.2053 170.021 22.4436 180.569 19.7158V19.7158C191.116 16.988 201.878 23.3272 204.606 33.8747L250.78 212.417C253.508 222.964 247.169 233.726 236.621 236.454V236.454C226.074 239.182 215.312 232.842 212.584 222.295L166.41 43.7529Z" fill="#DFDFDF"/>
</g>
<defs>
<filter id="filter0_d_1_17" x="0" y="0" width="276" height="276" filterUnits="userSpaceOnUse" color-interpolation-filters="sRGB">
<feFlood flood-opacity="0" result="BackgroundImageFix"/>
<feColorMatrix in="SourceAlpha" type="matrix" values="0 0 0 0 0 0 0 0 0 0 0 0 0 0 0 0 0 0 127 0" result="hardAlpha"/>
<feOffset dy="4"/>
<feGaussianBlur stdDeviation="5"/>
<feComposite in2="hardAlpha" operator="out"/>
<feColorMatrix type="matrix" values="0 0 0 0 0 0 0 0 0 0 0 0 0 0 0 0 0 0 0.25 0"/>
<feBlend mode="normal" in2="BackgroundImageFix" result="effect1_dropShadow_1_17"/>
<feBlend mode="normal" in="SourceGraphic" in2="effect1_dropShadow_1_17" result="shape"/>
</filter>
</defs>
</svg>
