<svg width="276" height="276" viewBox="0 0 276 276" fill="none" xmlns="http://www.w3.org/2000/svg">
<g filter="url(#filter0_d_1_17)">
<path d="M266 134C266 204.692 208.692 262 138 262C67.3076 262 10 204.692 10 134C10 63.3076 67.3076 6 138 6C208.692 6 266 63.3076 266 134Z" fill="#DEECF6"/>
<path fill-rule="evenodd" clip-rule="evenodd" d="M138 261C208.14 261 265 204.14 265 134C265 63.8598 208.14 7 138 7C67.8598 7 11 63.8598 11 134C11 204.14 67.8598 261 138 261ZM138 262C208.692 262 266 204.692 266 134C266 63.3076 208.692 6 138 6C67.3076 6 10 63.3076 10 134C10 204.692 67.3076 262 138 262Z" fill="black"/>
<path d="M73.4512 34.3873C75.8076 23.7506 86.3405 17.0381 96.9772 19.3944C107.614 21.7508 114.326 32.2837 111.97 42.9204L69.9363 232.662C67.5799 243.299 57.047 250.011 46.4104 247.655C35.7737 245.298 29.0612 234.765 31.4175 224.129L73.4512 34.3873Z" fill="white"/>
<path fill-rule="evenodd" clip-rule="evenodd" d="M96.7609 20.3708C86.6634 18.1339 76.6645 24.5061 74.4275 34.6035L32.3939 224.345C30.157 234.442 36.5292 244.441 46.6266 246.678C56.7241 248.915 66.7231 242.543 68.96 232.446L110.994 42.7041C113.231 32.6066 106.858 22.6077 96.7609 20.3708ZM96.9772 19.3944C86.3405 17.0381 75.8076 23.7506 73.4512 34.3873L31.4175 224.129C29.0612 234.765 35.7737 245.298 46.4104 247.655C57.047 250.011 67.5799 243.299 69.9363 232.662L111.97 42.9204C114.326 32.2837 107.614 21.7508 96.9772 19.3944Z" fill="black"/>
<path d="M76.3414 47.9494C73.6258 37.3988 79.9773 26.6443 90.5279 23.9286C101.079 21.213 111.833 27.5645 114.549 38.1152L131.506 103.997C134.222 114.548 127.87 125.302 117.32 128.018C106.769 130.733 96.0145 124.382 93.2988 113.831L76.3414 47.9494Z" fill="white"/>
<path fill-rule="evenodd" clip-rule="evenodd" d="M90.7772 24.8971C80.7614 27.475 74.7319 37.6843 77.3098 47.7001L94.2673 113.582C96.8452 123.598 107.055 129.627 117.07 127.049C127.086 124.471 133.116 114.262 130.538 104.246L113.58 38.3644C111.002 28.3486 100.793 22.3191 90.7772 24.8971ZM90.5279 23.9286C79.9773 26.6443 73.6258 37.3988 76.3414 47.9494L93.2988 113.831C96.0145 124.382 106.769 130.733 117.32 128.018C127.87 125.302 134.222 114.548 131.506 103.997L114.549 38.1152C111.833 27.5645 101.079 21.213 90.5279 23.9286Z" fill="black"/>
<path d="M175.51 35.0026C178.238 24.4551 188.999 18.1159 199.547 20.8437C210.094 23.5715 216.433 34.3332 213.706 44.8807L165.046 233.032C162.319 243.58 151.557 249.919 141.009 247.191C130.462 244.463 124.123 233.702 126.85 223.154L175.51 35.0026Z" fill="white"/>
<path fill-rule="evenodd" clip-rule="evenodd" d="M199.296 21.8118C189.284 19.2223 179.067 25.2401 176.478 35.253L127.819 223.404C125.229 233.417 131.247 243.633 141.26 246.223C151.273 248.812 161.489 242.795 164.078 232.782L212.738 44.6304C215.327 34.6175 209.309 24.4013 199.296 21.8118ZM199.547 20.8437C188.999 18.1159 178.238 24.4551 175.51 35.0026L126.85 223.154C124.123 233.702 130.462 244.463 141.009 247.191C151.557 249.919 162.319 243.58 165.046 233.032L213.706 44.8807C216.433 34.3332 210.094 23.5715 199.547 20.8437Z" fill="black"/>
<path d="M176.561 44.8808C173.833 34.3332 180.172 23.5715 190.72 20.8437C201.267 18.1159 212.029 24.4551 214.757 35.0026L260.931 213.545C263.659 224.092 257.32 234.854 246.772 237.582C236.225 240.309 225.463 233.97 222.735 223.423L176.561 44.8808Z" fill="white"/>
<path fill-rule="evenodd" clip-rule="evenodd" d="M190.97 21.8118C180.957 24.4013 174.94 34.6175 177.529 44.6304L223.703 223.172C226.293 233.185 236.509 239.203 246.522 236.614C256.535 234.024 262.552 223.808 259.963 213.795L213.789 35.253C211.199 25.2401 200.983 19.2223 190.97 21.8118ZM190.72 20.8437C180.172 23.5715 173.833 34.3332 176.561 44.8808L222.735 223.423C225.463 233.97 236.225 240.309 246.772 237.582C257.32 234.854 263.659 224.092 260.931 213.545L214.757 35.0026C212.029 24.4551 201.267 18.1159 190.72 20.8437Z" fill="black"/>
<path d="M63.3002 33.2594C65.6566 22.6227 76.1895 15.9102 86.8262 18.2666C97.4629 20.6229 104.175 31.1558 101.819 41.7925L59.7853 231.534C57.429 242.171 46.896 248.883 36.2594 246.527C25.6227 244.17 18.9102 233.638 21.2666 223.001L63.3002 33.2594Z" fill="#DFDFDF"/>
<path fill-rule="evenodd" clip-rule="evenodd" d="M86.6099 19.2429C76.5124 17.006 66.5135 23.3782 64.2766 33.4757L22.2429 223.217C20.006 233.315 26.3782 243.314 36.4757 245.55C46.5731 247.787 56.5721 241.415 58.809 231.318L100.843 41.5762C103.08 31.4788 96.7074 21.4798 86.6099 19.2429ZM86.8262 18.2666C76.1895 15.9102 65.6566 22.6227 63.3002 33.2594L21.2666 223.001C18.9102 233.638 25.6227 244.17 36.2594 246.527C46.896 248.883 57.429 242.171 59.7853 231.534L101.819 41.7925C104.175 31.1558 97.4629 20.6229 86.8262 18.2666Z" fill="black"/>
<path d="M66.1905 46.8215C63.4748 36.2709 69.8263 25.5164 80.377 22.8007C90.9277 20.0851 101.682 26.4366 104.398 36.9873L121.355 102.869C124.071 113.42 117.719 124.174 107.169 126.89C96.618 129.605 85.8635 123.254 83.1479 112.703L66.1905 46.8215Z" fill="#DFDFDF"/>
<path fill-rule="evenodd" clip-rule="evenodd" d="M80.6263 23.7692C70.6105 26.3472 64.5809 36.5565 67.1589 46.5723L84.1163 112.454C86.6943 122.47 96.9036 128.499 106.919 125.921C116.935 123.343 122.965 113.134 120.387 103.118L103.429 37.2365C100.851 27.2207 90.6421 21.1912 80.6263 23.7692ZM80.377 22.8007C69.8263 25.5164 63.4748 36.2709 66.1905 46.8215L83.1479 112.703C85.8635 123.254 96.618 129.605 107.169 126.89C117.719 124.174 124.071 113.42 121.355 102.869L104.398 36.9873C101.682 26.4366 90.9277 20.0851 80.377 22.8007Z" fill="black"/>
<path d="M165.359 33.8747C168.087 23.3272 178.848 16.988 189.396 19.7158C199.943 22.4436 206.283 33.2053 203.555 43.7529L154.896 231.904C152.168 242.452 141.406 248.791 130.858 246.063C120.311 243.335 113.972 232.574 116.7 222.026L165.359 33.8747Z" fill="#DFDFDF"/>
<path fill-rule="evenodd" clip-rule="evenodd" d="M189.145 20.6839C179.133 18.0945 168.916 24.1122 166.327 34.1251L117.668 222.276C115.078 232.289 121.096 242.506 131.109 245.095C141.122 247.684 151.338 241.667 153.927 231.654L202.587 43.5025C205.176 33.4897 199.158 23.2734 189.145 20.6839ZM189.396 19.7158C178.848 16.988 168.087 23.3272 165.359 33.8747L116.7 222.026C113.972 232.574 120.311 243.335 130.858 246.063C141.406 248.791 152.168 242.452 154.896 231.904L203.555 43.7529C206.283 33.2053 199.943 22.4436 189.396 19.7158Z" fill="black"/>
<path d="M166.41 43.7529C163.682 33.2053 170.021 22.4436 180.569 19.7158C191.116 16.988 201.878 23.3272 204.606 33.8747L250.78 212.417C253.508 222.964 247.169 233.726 236.621 236.454C226.074 239.182 215.312 232.842 212.584 222.295L166.41 43.7529Z" fill="#DFDFDF"/>
<path fill-rule="evenodd" clip-rule="evenodd" d="M180.819 20.6839C170.806 23.2734 164.789 33.4897 167.378 43.5025L213.552 222.045C216.142 232.057 226.358 238.075 236.371 235.486C246.384 232.896 252.401 222.68 249.812 212.667L203.638 34.1251C201.048 24.1123 190.832 18.0945 180.819 20.6839ZM180.569 19.7158C170.021 22.4436 163.682 33.2053 166.41 43.7529L212.584 222.295C215.312 232.842 226.074 239.182 236.621 236.454C247.169 233.726 253.508 222.964 250.78 212.417L204.606 33.8747C201.878 23.3272 191.116 16.988 180.569 19.7158Z" fill="black"/>
</g>
<defs>
<filter id="filter0_d_1_17" x="0" y="0" width="276" height="276" filterUnits="userSpaceOnUse" color-interpolation-filters="sRGB">
<feFlood flood-opacity="0" result="BackgroundImageFix"/>
<feColorMatrix in="SourceAlpha" type="matrix" values="0 0 0 0 0 0 0 0 0 0 0 0 0 0 0 0 0 0 127 0" result="hardAlpha"/>
<feOffset dy="4"/>
<feGaussianBlur stdDeviation="5"/>
<feComposite in2="hardAlpha" operator="out"/>
<feColorMatrix type="matrix" values="0 0 0 0 0 0 0 0 0 0 0 0 0 0 0 0 0 0 0.25 0"/>
<feBlend mode="normal" in2="BackgroundImageFix" result="effect1_dropShadow_1_17"/>
<feBlend mode="normal" in="SourceGraphic" in2="effect1_dropShadow_1_17" result="shape"/>
</filter>
</defs>
</svg>
